<svg width="1024" height="1024" viewBox="0 0 1024 1024" fill="none" xmlns="http://www.w3.org/2000/svg">
  <rect x="64" y="64" width="896" height="896" rx="218" fill="#172420"/>
  <path d="M766 138C839 181 886 260 886 350V744C886 814 829 871 759 871H430C595 789 705 642 705 475V301C705 234 728 178 766 138Z" fill="#1F8F83" fill-opacity="0.34"/>
  <rect x="255" y="507" width="86" height="232" rx="43" fill="#EAF7F3"/>
  <rect x="385" y="392" width="86" height="347" rx="43" fill="#75D8CB"/>
  <rect x="515" y="282" width="86" height="457" rx="43" fill="#49B9AE"/>
  <rect x="645" y="452" width="86" height="287" rx="43" fill="#B9ECE4"/>
  <circle cx="344" cy="307" r="28" fill="#EAF7F3"/>
  <circle cx="512" cy="230" r="24" fill="#75D8CB"/>
  <circle cx="681" cy="306" r="28" fill="#EAF7F3"/>
  <path d="M369 295L490 240L656 295" stroke="#EAF7F3" stroke-width="34" stroke-linecap="round" stroke-linejoin="round"/>
</svg>
